# xmcd
#
# Track frame offsets: 
#        150
#        4708
#        9860
#        16918
#        22383
#        30963
#        34765
#        41983
#        51908
#        57183
#        61938
#        66740
#        71625
#        80198
#        89243
#        95828
#        106693
#        120705
#        130058
#        137133
#        145545
#        155028
#        162848
#        173370
#        184020
#        194668
#        204488
#        212295
#        222815
#        233763
#        242665
#        254100
#
# Disc length: 3532 seconds
#
# Revision: 1
# Processed by: cddbd v1.5.2PL0 Copyright (c) Steve Scherf et al.
# Submitted via: ExactAudioCopyFreeDBPlugin 1.0
#
DISCID=cd0dca20
DTITLE=レインボーハーモニー　他 - アニメ主題歌大全集 02
DYEAR=1963
DGENRE=Anime
TTITLE0=レインボーハーモニー - レインボー戦隊ロビン
TTITLE1=レインボーハーモニー - ロビンの宇宙旅行
TTITLE2=上高田少年合唱団 - 進め！ロビン
TTITLE3=前川陽子 - すてきなリリ
TTITLE4=ハッピービーンズ - 進めレオ！主題歌
TTITLE5=ハッピービーンズ - 白いたてがみ
TTITLE6=加藤みどり - とびだせ！バッチリ
TTITLE7=加藤みどり - バッチリ　ソング
TTITLE8=スリーグレイセス - 魔法使いサリー
TTITLE9=前川陽子　ハニーナイツ - 魔法のマンボ
TTITLE10=加藤みどり　野沢雅子　平井道子　朝井ゆかり　千々松幸子 - いたずらの歌
TTITLE11=水垣洋子　フォーメイツ - パッパッパッのチョイナ
TTITLE12=ヤングフレッシュ - 悟空の大冒険マーチ
TTITLE13=ヤングフレッシュ - 悟空がすきすき
TTITLE14=増山江威子 - 竜子のうた
TTITLE15=山崎唯 - 悟空がやってくる
TTITLE16=天地総子　ボンくーる - ピッカリビーの主題歌
TTITLE17=美保くるり - 雲のドライブ
TTITLE18=前川陽子 - リボンの騎士
TTITLE19=前川陽子　ヤングフレッシュ - リボンのマーチ
TTITLE20=ボーカルショップ - マッハ GoGoGo
TTITLE21=谷啓 - おらぁグズラだど
TTITLE22=加藤みどり　みすず児童合唱団 - ゲゲゲの鬼太郎（カランコロンの歌）
TTITLE23=加藤みどり　ハニーナイツ - ゲゲゲの鬼太郎　妖怪クリスマス
TTITLE24=ボーカルショップ - わんぱく探偵団かぞえうた
TTITLE25=中村メイコ - ドカチンダンス
TTITLE26=中村メイコ - オモッチョロイ ドカチン
TTITLE27=尾藤イサオ - トッペイのバラード
TTITLE28=ハニーナイツ - 妖怪人間ベム
TTITLE29=山田淑子　劇団こまどり - ベロは友達
TTITLE30=加藤みどり　ハニーナイツ - ア太郎音頭
TTITLE31=大野進 - ニャロメのうた
EXTD=
EXTT0=
EXTT1=
EXTT2=
EXTT3=
EXTT4=
EXTT5=
EXTT6=
EXTT7=
EXTT8=
EXTT9=
EXTT10=
EXTT11=
EXTT12=
EXTT13=
EXTT14=
EXTT15=
EXTT16=
EXTT17=
EXTT18=
EXTT19=
EXTT20=
EXTT21=
EXTT22=
EXTT23=
EXTT24=
EXTT25=
EXTT26=
EXTT27=
EXTT28=
EXTT29=
EXTT30=
EXTT31=
PLAYORDER=
